<svg id="long-hair" xmlns="http://www.w3.org/2000/svg" viewBox="0 0 1000 1000"><svg id="long-hair-back" xmlns="http://www.w3.org/2000/svg" viewBox="0 0 1000 1000"><rect x="200.88" y="510.35" width="601.66" height="306.44" style="fill:#592d3d"/><circle cx="501.71" cy="510.35" r="300.83" style="fill:#592d3d"/><circle cx="501.71" cy="816.78" r="300.83" style="fill:#592d3d"/></svg><svg id="long-hair-front" xmlns="http://www.w3.org/2000/svg" viewBox="0 0 1000 1000"><path d="M561.29,392.34c-12.87,24-60,37.44-63.83,31.42-4.3-6.73,37.84-55.32,13.9-106.14" style="fill:#f3ab98"/><path d="M755,384.64C709,292,613.36,228.23,502.85,228.23c-138.79,0-254.1,100.48-277.18,232.66,0,0,200,8.67,277.1-76.26C502.77,384.63,641.25,469.55,755,384.64Z" style="fill:#592d3d"/><path d="M537.23,398.81C526.9,418.12,489.07,428.88,486,424c-3.45-5.4,30.38-44.42,11.16-85.22" style="fill:#592d3d"/></svg></svg>